{"title":"Elysium.2013.Bluray.1920x1080p.HUN.AC3-5.1.eng.DTS-HD-7.1.x264-W","uid":9396793,"size":16811337447,"categoryP":"video","categoryS":"hd___movies","magnet":"?xt=urn:btih:1f4cd18f6a6925aef10d46f59d30b2a411a7c5fa&amp;dn=Elysium.2013.Bluray.1920x1080p.HUN.AC3-5.1.eng.DTS-HD-7.1.x264-W&amp;tr=udp%3A%2F%2Ftracker.openbittorrent.com%3A80&amp;tr=udp%3A%2F%2Fopen.demonii.com%3A1337&amp;tr=udp%3A%2F%2Ftracker.coppersurfer.tk%3A6969&amp;tr=udp%3A%2F%2Fexodus.desync.com%3A6969","seeders":3,"leechers":0,"uploader":"wasq77","files":18,"time":1387995921,"description":"Complete name: Elysium.2013.Bluray.1920x1080p.HUN.AC3-5.1.eng.DTS-HD-7.1.x264-Wasq.mkv\n\nTiTLE.........: Elysium  (2013)\nHUN.TiTLE.....: Elysium - Zart vilag\nGENRE.........: Action | Drama | Sci-Fi\nRUNTiME.......: 1h:49m:35s                  \nSiZE..........: 15.6 Gb                           \nViDEO.CODEC...: x264\nRESOLUTiON....: 1920x1080 \nAUDiO.........: Hungarian AC3 5.1 @ 448 Kbps  \n English DTS 5.1 @ 1509 kbps\nSUBTiTLES.....: Hungarian + Forced, English + Forced \niMDb.LiNK.....: http://www.imdb.com/title/tt1535108/\n\n\nFormat                           : Matroska\nFile size                        : 13.2 GiB\nDuration                         : 1h 49mn\nOverall bit rate                 : 17.2 Mbps\nMovie name                       : Elysium.2013.Bluray.1920x1080p.HUN.AC3-5.1.eng.DTS-HD-7.1.x264-Wasq\nEncoded date                     : UTC 2013-12-18 01:37:20\n\nVideo\nID                               : 1\nFormat                           : AVC\nFormat/Info                      : Advanced Video Codec\nFormat settings, CABAC           : Yes\nFormat settings, ReFrames        : 4 frames\nCodec ID                         : V_MPEG4/ISO/AVC\nDuration                         : 1h 49mn\nBit rate mode                    : Variable\nBit rate                         : 14.0 Mbps\nMaximum bit rate                 : 30.0 Mbps\nWidth                            : 1 920 pixels\nHeight                           : 1 080 pixels\nDisplay aspect ratio             : 16:9\nFrame rate                       : 23.976 fps\nChroma subsampling               : 4:2:0\nBit depth                        : 8 bits\nScan type                        : Progressive\nBits/(Pixel*Frame)               : 0.282\nStream size                      : 10.8 GiB (82%)\nTitle                            : Elysium.2013.Bluray.1920x1080p.x264\n\nAudio #1\nID                               : 2\nFormat                           : AC-3\nFormat/Info                      : Audio Coding 3\nMode extension                   : CM (complete main)\nCodec ID                         : A_AC3\nDuration                         : 1h 49mn\nBit rate mode                    : Constant\nBit rate                         : 448 Kbps\nChannel(s)                       : 6 channels\nChannel positions                : Front: L C R, Side: L R, LFE\nSampling rate                    : 48.0 KHz\nBit depth                        : 16 bits\nCompression mode                 : Lossy\nStream size                      : 351 MiB (3%)\nTitle                            : Magyar AC3 5.1 448Kbps 48,0KHz\nLanguage                         : Hungarian\n\nAudio #2\nID                               : 3\nFormat                           : DTS\nFormat/Info                      : Digital Theater Systems\nFormat profile                   : MA / Core\nCodec ID                         : A_DTS\nDuration                         : 1h 49mn\nBit rate mode                    : Variable\nBit rate                         : 2 386 Kbps / 1 510 Kbps\nChannel(s)                       : 8 channels / 6 channels\nChannel positions                : Front: L C R, Side: L R, Back: L R, LFE / Front: L C R, Side: L R, LFE\nSampling rate                    : 48.0 KHz\nBit depth                        : 16 bits\nCompression mode                 : Lossless / Lossy\nTitle                            : English DTS 7.1\nLanguage                         : English\n\nText #1\nID                               : 4\nFormat                           : UTF-8\nCodec ID                         : S_TEXT/UTF8\nCodec ID/Info                    : UTF-8 Plain Text\nTitle                            : Magyar felirat (forced)\nLanguage                         : Hungarian\n\nText #2\nID                               : 5\nFormat                           : UTF-8\nCodec ID                         : S_TEXT/UTF8\nCodec ID/Info                    : UTF-8 Plain Text\nTitle                            : Magyar felirat (full)\nLanguage                         : Hungarian\n\nText #3\nID                               : 6\nFormat                           : PGS\nMuxing mode                      : zlib\nCodec ID                         : S_HDMV/PGS\nCodec ID/Info                    : The same subtitle format used on BDs/HD-DVDs\nTitle                            : English subtitles (forced)\nLanguage                         : English\n\nText #4\nID                               : 7\nFormat                           : PGS\nMuxing mode                      : zlib\nCodec ID                         : S_HDMV/PGS\nCodec ID/Info                    : The same subtitle format used on BDs/HD-DVDs\nTitle                            : English subtitles (full)\nLanguage                         : English","torrent":{"xt":"urn:btih:1f4cd18f6a6925aef10d46f59d30b2a411a7c5fa","amp;dn":"Elysium.2013.Bluray.1920x1080p.HUN.AC3-5.1.eng.DTS-HD-7.1.x264-W","amp;tr":["udp%3A%2F%2Ftracker.openbittorrent.com%3A80","udp%3A%2F%2Fopen.demonii.com%3A1337","udp%3A%2F%2Ftracker.coppersurfer.tk%3A6969","udp%3A%2F%2Fexodus.desync.com%3A6969"],"infoHash":"1f4cd18f6a6925aef10d46f59d30b2a411a7c5fa","infoHashBuffer":{"type":"Buffer","data":[31,76,209,143,106,105,37,174,241,13,70,245,157,48,178,164,17,167,197,250]},"announce":[],"urlList":[]}}